STARTFONT 2.1
COMMENT Exported by Fony v1.4.7
FONT Fixed
SIZE 14 75 75
FONTBOUNDINGBOX 8 13 0 -2
STARTPROPERTIES 6
COPYRIGHT "Public domain font.  Share and enjoy."
RESOLUTION_X 75
RESOLUTION_Y 75
FONT_ASCENT 12
FONT_DESCENT 2
DEFAULT_CHAR 0
ENDPROPERTIES
CHARS 256
STARTCHAR 000
ENCODING 0
SWIDTH 576 0
DWIDTH 8 0
BBX 8 14 0 -2
BITMAP
00
00
00
AA
00
82
00
82
00
82
00
AA
00
00
ENDCHAR
STARTCHAR 001
ENCODING 1
SWIDTH 72 0
DWIDTH 1 0
BBX 1 14 0 -2
BITMAP
00
00
00
00
00
00
00
00
00
00
00
00
00
00
ENDCHAR
STARTCHAR 002
ENCODING 2
SWIDTH 72 0
DWIDTH 1 0
BBX 1 14 0 -2
BITMAP
00
00
00
00
00
00
00
00
00
00
00
00
00
00
ENDCHAR
STARTCHAR 003
ENCODING 3
SWIDTH 72 0
DWIDTH 1 0
BBX 1 14 0 -2
BITMAP
00
00
00
00
00
00
00
00
00
00
00
00
00
00
ENDCHAR
STARTCHAR 004
ENCODING 4
SWIDTH 72 0
DWIDTH 1 0
BBX 1 14 0 -2
BITMAP
00
00
00
00
00
00
00
00
00
00
00
00
00
00
ENDCHAR
STARTCHAR 005
ENCODING 5
SWIDTH 72 0
DWIDTH 1 0
BBX 1 14 0 -2
BITMAP
00
00
00
00
00
00
00
00
00
00
00
00
00
00
ENDCHAR
STARTCHAR 006
ENCODING 6
SWIDTH 72 0
DWIDTH 1 0
BBX 1 14 0 -2
BITMAP
00
00
00
00
00
00
00
00
00
00
00
00
00
00
ENDCHAR
STARTCHAR 007
ENCODING 7
SWIDTH 72 0
DWIDTH 1 0
BBX 1 14 0 -2
BITMAP
00
00
00
00
00
00
00
00
00
00
00
00
00
00
ENDCHAR
STARTCHAR 008
ENCODING 8
SWIDTH 72 0
DWIDTH 1 0
BBX 1 14 0 -2
BITMAP
00
00
00
00
00
00
00
00
00
00
00
00
00
00
ENDCHAR
STARTCHAR 009
ENCODING 9
SWIDTH 72 0
DWIDTH 1 0
BBX 1 14 0 -2
BITMAP
00
00
00
00
00
00
00
00
00
00
00
00
00
00
ENDCHAR
STARTCHAR 010
ENCODING 10
SWIDTH 72 0
DWIDTH 1 0
BBX 1 14 0 -2
BITMAP
00
00
00
00
00
00
00
00
00
00
00
00
00
00
ENDCHAR
STARTCHAR 011
ENCODING 11
SWIDTH 72 0
DWIDTH 1 0
BBX 1 14 0 -2
BITMAP
00
00
00
00
00
00
00
00
00
00
00
00
00
00
ENDCHAR
STARTCHAR 012
ENCODING 12
SWIDTH 72 0
DWIDTH 1 0
BBX 1 14 0 -2
BITMAP
00
00
00
00
00
00
00
00
00
00
00
00
00
00
ENDCHAR
STARTCHAR 013
ENCODING 13
SWIDTH 72 0
DWIDTH 1 0
BBX 1 14 0 -2
BITMAP
00
00
00
00
00
00
00
00
00
00
00
00
00
00
ENDCHAR
STARTCHAR 014
ENCODING 14
SWIDTH 72 0
DWIDTH 1 0
BBX 1 14 0 -2
BITMAP
00
00
00
00
00
00
00
00
00
00
00
00
00
00
ENDCHAR
STARTCHAR 015
ENCODING 15
SWIDTH 72 0
DWIDTH 1 0
BBX 1 14 0 -2
BITMAP
00
00
00
00
00
00
00
00
00
00
00
00
00
00
ENDCHAR
STARTCHAR 016
ENCODING 16
SWIDTH 72 0
DWIDTH 1 0
BBX 1 14 0 -2
BITMAP
00
00
00
00
00
00
00
00
00
00
00
00
00
00
ENDCHAR
STARTCHAR 017
ENCODING 17
SWIDTH 72 0
DWIDTH 1 0
BBX 1 14 0 -2
BITMAP
00
00
00
00
00
00
00
00
00
00
00
00
00
00
ENDCHAR
STARTCHAR 018
ENCODING 18
SWIDTH 72 0
DWIDTH 1 0
BBX 1 14 0 -2
BITMAP
00
00
00
00
00
00
00
00
00
00
00
00
00
00
ENDCHAR
STARTCHAR 019
ENCODING 19
SWIDTH 72 0
DWIDTH 1 0
BBX 1 14 0 -2
BITMAP
00
00
00
00
00
00
00
00
00
00
00
00
00
00
ENDCHAR
STARTCHAR 020
ENCODING 20
SWIDTH 72 0
DWIDTH 1 0
BBX 1 14 0 -2
BITMAP
00
00
00
00
00
00
00
00
00
00
00
00
00
00
ENDCHAR
STARTCHAR 021
ENCODING 21
SWIDTH 72 0
DWIDTH 1 0
BBX 1 14 0 -2
BITMAP
00
00
00
00
00
00
00
00
00
00
00
00
00
00
ENDCHAR
STARTCHAR 022
ENCODING 22
SWIDTH 72 0
DWIDTH 1 0
BBX 1 14 0 -2
BITMAP
00
00
00
00
00
00
00
00
00
00
00
00
00
00
ENDCHAR
STARTCHAR 023
ENCODING 23
SWIDTH 72 0
DWIDTH 1 0
BBX 1 14 0 -2
BITMAP
00
00
00
00
00
00
00
00
00
00
00
00
00
00
ENDCHAR
STARTCHAR 024
ENCODING 24
SWIDTH 72 0
DWIDTH 1 0
BBX 1 14 0 -2
BITMAP
00
00
00
00
00
00
00
00
00
00
00
00
00
00
ENDCHAR
STARTCHAR 025
ENCODING 25
SWIDTH 72 0
DWIDTH 1 0
BBX 1 14 0 -2
BITMAP
00
00
00
00
00
00
00
00
00
00
00
00
00
00
ENDCHAR
STARTCHAR 026
ENCODING 26
SWIDTH 72 0
DWIDTH 1 0
BBX 1 14 0 -2
BITMAP
00
00
00
00
00
00
00
00
00
00
00
00
00
00
ENDCHAR
STARTCHAR 027
ENCODING 27
SWIDTH 72 0
DWIDTH 1 0
BBX 1 14 0 -2
BITMAP
00
00
00
00
00
00
00
00
00
00
00
00
00
00
ENDCHAR
STARTCHAR 028
ENCODING 28
SWIDTH 72 0
DWIDTH 1 0
BBX 1 14 0 -2
BITMAP
00
00
00
00
00
00
00
00
00
00
00
00
00
00
ENDCHAR
STARTCHAR 029
ENCODING 29
SWIDTH 72 0
DWIDTH 1 0
BBX 1 14 0 -2
BITMAP
00
00
00
00
00
00
00
00
00
00
00
00
00
00
ENDCHAR
STARTCHAR 030
ENCODING 30
SWIDTH 72 0
DWIDTH 1 0
BBX 1 14 0 -2
BITMAP
00
00
00
00
00
00
00
00
00
00
00
00
00
00
ENDCHAR
STARTCHAR 031
ENCODING 31
SWIDTH 72 0
DWIDTH 1 0
BBX 1 14 0 -2
BITMAP
00
00
00
00
00
00
00
00
00
00
00
00
00
00
ENDCHAR
STARTCHAR 032
ENCODING 32
SWIDTH 576 0
DWIDTH 8 0
BBX 8 14 0 -2
BITMAP
00
00
00
00
00
00
00
00
00
00
00
00
00
00
ENDCHAR
STARTCHAR 033
ENCODING 33
SWIDTH 576 0
DWIDTH 8 0
BBX 8 14 0 -2
BITMAP
00
00
00
10
10
10
10
10
10
10
00
10
00
00
ENDCHAR
STARTCHAR 034
ENCODING 34
SWIDTH 576 0
DWIDTH 8 0
BBX 8 14 0 -2
BITMAP
00
00
00
24
24
24
00
00
00
00
00
00
00
00
ENDCHAR
STARTCHAR 035
ENCODING 35
SWIDTH 576 0
DWIDTH 8 0
BBX 8 14 0 -2
BITMAP
00
00
00
00
24
24
7E
24
7E
24
24
00
00
00
ENDCHAR
STARTCHAR 036
ENCODING 36
SWIDTH 576 0
DWIDTH 8 0
BBX 8 14 0 -2
BITMAP
00
00
00
10
3C
50
50
38
14
14
78
10
00
00
ENDCHAR
STARTCHAR 037
ENCODING 37
SWIDTH 576 0
DWIDTH 8 0
BBX 8 14 0 -2
BITMAP
00
00
00
22
52
24
08
08
10
24
2A
44
00
00
ENDCHAR
STARTCHAR 038
ENCODING 38
SWIDTH 576 0
DWIDTH 8 0
BBX 8 14 0 -2
BITMAP
00
00
00
00
00
30
48
48
30
4A
44
3A
00
00
ENDCHAR
STARTCHAR 039
ENCODING 39
SWIDTH 576 0
DWIDTH 8 0
BBX 8 14 0 -2
BITMAP
00
00
00
10
10
10
00
00
00
00
00
00
00
00
ENDCHAR
STARTCHAR 040
ENCODING 40
SWIDTH 576 0
DWIDTH 8 0
BBX 8 14 0 -2
BITMAP
00
00
00
04
08
08
10
10
10
08
08
04
00
00
ENDCHAR
STARTCHAR 041
ENCODING 41
SWIDTH 576 0
DWIDTH 8 0
BBX 8 14 0 -2
BITMAP
00
00
00
20
10
10
08
08
08
10
10
20
00
00
ENDCHAR
STARTCHAR 042
ENCODING 42
SWIDTH 576 0
DWIDTH 8 0
BBX 8 14 0 -2
BITMAP
00
00
00
24
18
7E
18
24
00
00
00
00
00
00
ENDCHAR
STARTCHAR 043
ENCODING 43
SWIDTH 576 0
DWIDTH 8 0
BBX 8 14 0 -2
BITMAP
00
00
00
00
00
10
10
7C
10
10
00
00
00
00
ENDCHAR
STARTCHAR 044
ENCODING 44
SWIDTH 576 0
DWIDTH 8 0
BBX 8 14 0 -2
BITMAP
00
00
00
00
00
00
00
00
00
00
38
30
40
00
ENDCHAR
STARTCHAR 045
ENCODING 45
SWIDTH 576 0
DWIDTH 8 0
BBX 8 14 0 -2
BITMAP
00
00
00
00
00
00
00
7C
00
00
00
00
00
00
ENDCHAR
STARTCHAR 046
ENCODING 46
SWIDTH 576 0
DWIDTH 8 0
BBX 8 14 0 -2
BITMAP
00
00
00
00
00
00
00
00
00
00
10
38
10
00
ENDCHAR
STARTCHAR 047
ENCODING 47
SWIDTH 576 0
DWIDTH 8 0
BBX 8 14 0 -2
BITMAP
00
00
00
02
02
04
08
10
20
40
80
80
00
00
ENDCHAR
STARTCHAR 048
ENCODING 48
SWIDTH 576 0
DWIDTH 8 0
BBX 8 14 0 -2
BITMAP
00
00
7E
7E
66
66
66
66
66
66
7E
7E
00
00
ENDCHAR
STARTCHAR 049
ENCODING 49
SWIDTH 576 0
DWIDTH 8 0
BBX 8 14 0 -2
BITMAP
00
00
18
18
78
78
18
18
18
18
7E
7E
00
00
ENDCHAR
STARTCHAR 050
ENCODING 50
SWIDTH 576 0
DWIDTH 8 0
BBX 8 14 0 -2
BITMAP
00
00
7E
7E
06
06
7E
7E
60
60
7E
7E
00
00
ENDCHAR
STARTCHAR 051
ENCODING 51
SWIDTH 576 0
DWIDTH 8 0
BBX 8 14 0 -2
BITMAP
00
00
7E
7E
02
02
1E
1E
06
06
7E
7E
00
00
ENDCHAR
STARTCHAR 052
ENCODING 52
SWIDTH 576 0
DWIDTH 8 0
BBX 8 14 0 -2
BITMAP
00
00
66
66
66
66
7E
7E
06
06
06
06
00
00
ENDCHAR
STARTCHAR 053
ENCODING 53
SWIDTH 576 0
DWIDTH 8 0
BBX 8 14 0 -2
BITMAP
00
00
7E
7E
60
60
7E
7E
06
06
7E
7E
00
00
ENDCHAR
STARTCHAR 054
ENCODING 54
SWIDTH 576 0
DWIDTH 8 0
BBX 8 14 0 -2
BITMAP
00
00
7E
7E
60
60
7E
7E
66
66
7E
7E
00
00
ENDCHAR
STARTCHAR 055
ENCODING 55
SWIDTH 576 0
DWIDTH 8 0
BBX 8 14 0 -2
BITMAP
00
00
7E
7E
06
06
06
06
06
06
06
06
00
00
ENDCHAR
STARTCHAR 056
ENCODING 56
SWIDTH 576 0
DWIDTH 8 0
BBX 8 14 0 -2
BITMAP
00
00
7E
7E
66
66
7E
7E
66
66
7E
7E
00
00
ENDCHAR
STARTCHAR 057
ENCODING 57
SWIDTH 576 0
DWIDTH 8 0
BBX 8 14 0 -2
BITMAP
00
00
7E
7E
66
66
7E
7E
06
06
7E
7E
00
00
ENDCHAR
STARTCHAR 058
ENCODING 58
SWIDTH 576 0
DWIDTH 8 0
BBX 8 14 0 -2
BITMAP
00
00
00
18
18
00
00
00
00
18
18
00
00
00
ENDCHAR
STARTCHAR 059
ENCODING 59
SWIDTH 576 0
DWIDTH 8 0
BBX 8 14 0 -2
BITMAP
00
00
00
00
00
10
38
10
00
00
38
30
40
00
ENDCHAR
STARTCHAR 060
ENCODING 60
SWIDTH 576 0
DWIDTH 8 0
BBX 8 14 0 -2
BITMAP
00
00
00
02
04
08
10
20
10
08
04
02
00
00
ENDCHAR
STARTCHAR 061
ENCODING 61
SWIDTH 576 0
DWIDTH 8 0
BBX 8 14 0 -2
BITMAP
00
00
00
00
00
00
7E
00
00
7E
00
00
00
00
ENDCHAR
STARTCHAR 062
ENCODING 62
SWIDTH 576 0
DWIDTH 8 0
BBX 8 14 0 -2
BITMAP
00
00
00
40
20
10
08
04
08
10
20
40
00
00
ENDCHAR
STARTCHAR 063
ENCODING 63
SWIDTH 576 0
DWIDTH 8 0
BBX 8 14 0 -2
BITMAP
00
00
00
3C
42
42
02
04
08
08
00
08
00
00
ENDCHAR
STARTCHAR 064
ENCODING 64
SWIDTH 576 0
DWIDTH 8 0
BBX 8 14 0 -2
BITMAP
00
00
00
3C
42
42
4E
52
56
4A
40
3C
00
00
ENDCHAR
STARTCHAR 065
ENCODING 65
SWIDTH 576 0
DWIDTH 8 0
BBX 8 14 0 -2
BITMAP
00
00
00
18
24
42
42
42
7E
42
42
42
00
00
ENDCHAR
STARTCHAR 066
ENCODING 66
SWIDTH 576 0
DWIDTH 8 0
BBX 8 14 0 -2
BITMAP
00
00
00
78
44
42
44
78
44
42
44
78
00
00
ENDCHAR
STARTCHAR 067
ENCODING 67
SWIDTH 576 0
DWIDTH 8 0
BBX 8 14 0 -2
BITMAP
00
00
00
3C
42
40
40
40
40
40
42
3C
00
00
ENDCHAR
STARTCHAR 068
ENCODING 68
SWIDTH 576 0
DWIDTH 8 0
BBX 8 14 0 -2
BITMAP
00
00
00
78
44
42
42
42
42
42
44
78
00
00
ENDCHAR
STARTCHAR 069
ENCODING 69
SWIDTH 576 0
DWIDTH 8 0
BBX 8 14 0 -2
BITMAP
00
00
00
7E
40
40
40
78
40
40
40
7E
00
00
ENDCHAR
STARTCHAR 070
ENCODING 70
SWIDTH 576 0
DWIDTH 8 0
BBX 8 14 0 -2
BITMAP
00
00
00
7E
40
40
40
78
40
40
40
40
00
00
ENDCHAR
STARTCHAR 071
ENCODING 71
SWIDTH 576 0
DWIDTH 8 0
BBX 8 14 0 -2
BITMAP
00
00
00
3C
42
40
40
40
4E
42
46
3A
00
00
ENDCHAR
STARTCHAR 072
ENCODING 72
SWIDTH 576 0
DWIDTH 8 0
BBX 8 14 0 -2
BITMAP
00
00
00
42
42
42
42
7E
42
42
42
42
00
00
ENDCHAR
STARTCHAR 073
ENCODING 73
SWIDTH 576 0
DWIDTH 8 0
BBX 8 14 0 -2
BITMAP
00
00
00
7C
10
10
10
10
10
10
10
7C
00
00
ENDCHAR
STARTCHAR 074
ENCODING 74
SWIDTH 576 0
DWIDTH 8 0
BBX 8 14 0 -2
BITMAP
00
00
00
1F
04
04
04
04
04
04
44
38
00
00
ENDCHAR
STARTCHAR 075
ENCODING 75
SWIDTH 576 0
DWIDTH 8 0
BBX 8 14 0 -2
BITMAP
00
00
00
42
44
48
50
60
50
48
44
42
00
00
ENDCHAR
STARTCHAR 076
ENCODING 76
SWIDTH 576 0
DWIDTH 8 0
BBX 8 14 0 -2
BITMAP
00
00
00
40
40
40
40
40
40
40
40
7E
00
00
ENDCHAR
STARTCHAR 077
ENCODING 77
SWIDTH 576 0
DWIDTH 8 0
BBX 8 14 0 -2
BITMAP
00
00
00
82
82
C6
AA
92
92
82
82
82
00
00
ENDCHAR
STARTCHAR 078
ENCODING 78
SWIDTH 576 0
DWIDTH 8 0
BBX 8 14 0 -2
BITMAP
00
00
00
42
42
62
52
4A
46
42
42
42
00
00
ENDCHAR
STARTCHAR 079
ENCODING 79
SWIDTH 576 0
DWIDTH 8 0
BBX 8 14 0 -2
BITMAP
00
00
00
3C
42
42
42
42
42
42
42
3C
00
00
ENDCHAR
STARTCHAR 080
ENCODING 80
SWIDTH 576 0
DWIDTH 8 0
BBX 8 14 0 -2
BITMAP
00
00
00
7C
42
42
42
7C
40
40
40
40
00
00
ENDCHAR
STARTCHAR 081
ENCODING 81
SWIDTH 576 0
DWIDTH 8 0
BBX 8 14 0 -2
BITMAP
00
00
00
3C
42
42
42
42
42
52
4A
3C
02
00
ENDCHAR
STARTCHAR 082
ENCODING 82
SWIDTH 576 0
DWIDTH 8 0
BBX 8 14 0 -2
BITMAP
00
00
00
7C
42
42
42
7C
50
48
44
42
00
00
ENDCHAR
STARTCHAR 083
ENCODING 83
SWIDTH 576 0
DWIDTH 8 0
BBX 8 14 0 -2
BITMAP
00
00
00
3C
42
40
40
3C
02
02
42
3C
00
00
ENDCHAR
STARTCHAR 084
ENCODING 84
SWIDTH 576 0
DWIDTH 8 0
BBX 8 14 0 -2
BITMAP
00
00
00
FE
10
10
10
10
10
10
10
10
00
00
ENDCHAR
STARTCHAR 085
ENCODING 85
SWIDTH 576 0
DWIDTH 8 0
BBX 8 14 0 -2
BITMAP
00
00
00
42
42
42
42
42
42
42
42
3C
00
00
ENDCHAR
STARTCHAR 086
ENCODING 86
SWIDTH 576 0
DWIDTH 8 0
BBX 8 14 0 -2
BITMAP
00
00
00
82
82
44
44
44
28
28
28
10
00
00
ENDCHAR
STARTCHAR 087
ENCODING 87
SWIDTH 576 0
DWIDTH 8 0
BBX 8 14 0 -2
BITMAP
00
00
00
82
82
82
82
92
92
92
AA
44
00
00
ENDCHAR
STARTCHAR 088
ENCODING 88
SWIDTH 576 0
DWIDTH 8 0
BBX 8 14 0 -2
BITMAP
00
00
00
82
82
44
28
10
28
44
82
82
00
00
ENDCHAR
STARTCHAR 089
ENCODING 89
SWIDTH 576 0
DWIDTH 8 0
BBX 8 14 0 -2
BITMAP
00
00
00
82
82
44
28
10
10
10
10
10
00
00
ENDCHAR
STARTCHAR 090
ENCODING 90
SWIDTH 576 0
DWIDTH 8 0
BBX 8 14 0 -2
BITMAP
00
00
00
7E
02
04
08
10
20
40
40
7E
00
00
ENDCHAR
STARTCHAR 091
ENCODING 91
SWIDTH 576 0
DWIDTH 8 0
BBX 8 14 0 -2
BITMAP
00
00
00
3C
20
20
20
20
20
20
20
3C
00
00
ENDCHAR
STARTCHAR 092
ENCODING 92
SWIDTH 576 0
DWIDTH 8 0
BBX 8 14 0 -2
BITMAP
00
00
00
80
80
40
20
10
08
04
02
02
00
00
ENDCHAR
STARTCHAR 093
ENCODING 93
SWIDTH 576 0
DWIDTH 8 0
BBX 8 14 0 -2
BITMAP
00
00
00
78
08
08
08
08
08
08
08
78
00
00
ENDCHAR
STARTCHAR 094
ENCODING 94
SWIDTH 576 0
DWIDTH 8 0
BBX 8 14 0 -2
BITMAP
00
00
00
10
28
44
00
00
00
00
00
00
00
00
ENDCHAR
STARTCHAR 095
ENCODING 95
SWIDTH 576 0
DWIDTH 8 0
BBX 8 14 0 -2
BITMAP
00
00
00
00
00
00
00
00
00
00
00
00
FE
00
ENDCHAR
STARTCHAR 096
ENCODING 96
SWIDTH 576 0
DWIDTH 8 0
BBX 8 14 0 -2
BITMAP
00
00
10
08
00
00
00
00
00
00
00
00
00
00
ENDCHAR
STARTCHAR 097
ENCODING 97
SWIDTH 576 0
DWIDTH 8 0
BBX 8 14 0 -2
BITMAP
00
00
00
00
00
00
3C
02
3E
42
46
3A
00
00
ENDCHAR
STARTCHAR 098
ENCODING 98
SWIDTH 576 0
DWIDTH 8 0
BBX 8 14 0 -2
BITMAP
00
00
00
40
40
40
5C
62
42
42
62
5C
00
00
ENDCHAR
STARTCHAR 099
ENCODING 99
SWIDTH 576 0
DWIDTH 8 0
BBX 8 14 0 -2
BITMAP
00
00
00
00
00
00
3C
42
40
40
42
3C
00
00
ENDCHAR
STARTCHAR 100
ENCODING 100
SWIDTH 576 0
DWIDTH 8 0
BBX 8 14 0 -2
BITMAP
00
00
00
02
02
02
3A
46
42
42
46
3A
00
00
ENDCHAR
STARTCHAR 101
ENCODING 101
SWIDTH 576 0
DWIDTH 8 0
BBX 8 14 0 -2
BITMAP
00
00
00
00
00
00
3C
42
7E
40
42
3C
00
00
ENDCHAR
STARTCHAR 102
ENCODING 102
SWIDTH 576 0
DWIDTH 8 0
BBX 8 14 0 -2
BITMAP
00
00
00
1C
22
20
20
7C
20
20
20
20
00
00
ENDCHAR
STARTCHAR 103
ENCODING 103
SWIDTH 576 0
DWIDTH 8 0
BBX 8 14 0 -2
BITMAP
00
00
00
00
00
00
3A
44
44
38
40
3C
42
3C
ENDCHAR
STARTCHAR 104
ENCODING 104
SWIDTH 576 0
DWIDTH 8 0
BBX 8 14 0 -2
BITMAP
00
00
00
40
40
40
5C
62
42
42
42
42
00
00
ENDCHAR
STARTCHAR 105
ENCODING 105
SWIDTH 576 0
DWIDTH 8 0
BBX 8 14 0 -2
BITMAP
00
00
00
00
10
00
30
10
10
10
10
7C
00
00
ENDCHAR
STARTCHAR 106
ENCODING 106
SWIDTH 576 0
DWIDTH 8 0
BBX 8 14 0 -2
BITMAP
00
00
00
00
04
00
0C
04
04
04
04
44
44
38
ENDCHAR
STARTCHAR 107
ENCODING 107
SWIDTH 576 0
DWIDTH 8 0
BBX 8 14 0 -2
BITMAP
00
00
00
40
40
40
44
48
70
48
44
42
00
00
ENDCHAR
STARTCHAR 108
ENCODING 108
SWIDTH 576 0
DWIDTH 8 0
BBX 8 14 0 -2
BITMAP
00
00
00
30
10
10
10
10
10
10
10
7C
00
00
ENDCHAR
STARTCHAR 109
ENCODING 109
SWIDTH 576 0
DWIDTH 8 0
BBX 8 14 0 -2
BITMAP
00
00
00
00
00
00
EC
92
92
92
92
82
00
00
ENDCHAR
STARTCHAR 110
ENCODING 110
SWIDTH 576 0
DWIDTH 8 0
BBX 8 14 0 -2
BITMAP
00
00
00
00
00
00
5C
62
42
42
42
42
00
00
ENDCHAR
STARTCHAR 111
ENCODING 111
SWIDTH 576 0
DWIDTH 8 0
BBX 8 14 0 -2
BITMAP
00
00
00
00
00
00
3C
42
42
42
42
3C
00
00
ENDCHAR
STARTCHAR 112
ENCODING 112
SWIDTH 576 0
DWIDTH 8 0
BBX 8 14 0 -2
BITMAP
00
00
00
00
00
00
5C
62
42
62
5C
40
40
40
ENDCHAR
STARTCHAR 113
ENCODING 113
SWIDTH 576 0
DWIDTH 8 0
BBX 8 14 0 -2
BITMAP
00
00
00
00
00
00
3A
46
42
46
3A
02
02
02
ENDCHAR
STARTCHAR 114
ENCODING 114
SWIDTH 576 0
DWIDTH 8 0
BBX 8 14 0 -2
BITMAP
00
00
00
00
00
00
5C
22
20
20
20
20
00
00
ENDCHAR
STARTCHAR 115
ENCODING 115
SWIDTH 576 0
DWIDTH 8 0
BBX 8 14 0 -2
BITMAP
00
00
00
00
00
00
3C
42
30
0C
42
3C
00
00
ENDCHAR
STARTCHAR 116
ENCODING 116
SWIDTH 576 0
DWIDTH 8 0
BBX 8 14 0 -2
BITMAP
00
00
00
00
20
20
7C
20
20
20
22
1C
00
00
ENDCHAR
STARTCHAR 117
ENCODING 117
SWIDTH 576 0
DWIDTH 8 0
BBX 8 14 0 -2
BITMAP
00
00
00
00
00
00
44
44
44
44
44
3A
00
00
ENDCHAR
STARTCHAR 118
ENCODING 118
SWIDTH 576 0
DWIDTH 8 0
BBX 8 14 0 -2
BITMAP
00
00
00
00
00
00
44
44
44
28
28
10
00
00
ENDCHAR
STARTCHAR 119
ENCODING 119
SWIDTH 576 0
DWIDTH 8 0
BBX 8 14 0 -2
BITMAP
00
00
00
00
00
00
82
82
92
92
AA
44
00
00
ENDCHAR
STARTCHAR 120
ENCODING 120
SWIDTH 576 0
DWIDTH 8 0
BBX 8 14 0 -2
BITMAP
00
00
00
00
00
00
42
24
18
18
24
42
00
00
ENDCHAR
STARTCHAR 121
ENCODING 121
SWIDTH 576 0
DWIDTH 8 0
BBX 8 14 0 -2
BITMAP
00
00
00
00
00
00
42
42
42
46
3A
02
42
3C
ENDCHAR
STARTCHAR 122
ENCODING 122
SWIDTH 576 0
DWIDTH 8 0
BBX 8 14 0 -2
BITMAP
00
00
00
00
00
00
7E
04
08
10
20
7E
00
00
ENDCHAR
STARTCHAR 123
ENCODING 123
SWIDTH 576 0
DWIDTH 8 0
BBX 8 14 0 -2
BITMAP
00
00
00
0E
10
10
08
30
08
10
10
0E
00
00
ENDCHAR
STARTCHAR 124
ENCODING 124
SWIDTH 576 0
DWIDTH 8 0
BBX 8 14 0 -2
BITMAP
00
00
00
10
10
10
10
10
10
10
10
10
00
00
ENDCHAR
STARTCHAR 125
ENCODING 125
SWIDTH 576 0
DWIDTH 8 0
BBX 8 14 0 -2
BITMAP
00
00
00
70
08
08
10
0C
10
08
08
70
00
00
ENDCHAR
STARTCHAR 126
ENCODING 126
SWIDTH 576 0
DWIDTH 8 0
BBX 8 14 0 -2
BITMAP
00
00
00
24
54
48
00
00
00
00
00
00
00
00
ENDCHAR
STARTCHAR 127
ENCODING 127
SWIDTH 72 0
DWIDTH 1 0
BBX 1 14 0 -2
BITMAP
00
00
00
00
00
00
00
00
00
00
00
00
00
00
ENDCHAR
STARTCHAR 128
ENCODING 128
SWIDTH 72 0
DWIDTH 1 0
BBX 1 14 0 -2
BITMAP
00
00
00
00
00
00
00
00
00
00
00
00
00
00
ENDCHAR
STARTCHAR 129
ENCODING 129
SWIDTH 72 0
DWIDTH 1 0
BBX 1 14 0 -2
BITMAP
00
00
00
00
00
00
00
00
00
00
00
00
00
00
ENDCHAR
STARTCHAR 130
ENCODING 130
SWIDTH 72 0
DWIDTH 1 0
BBX 1 14 0 -2
BITMAP
00
00
00
00
00
00
00
00
00
00
00
00
00
00
ENDCHAR
STARTCHAR 131
ENCODING 131
SWIDTH 72 0
DWIDTH 1 0
BBX 1 14 0 -2
BITMAP
00
00
00
00
00
00
00
00
00
00
00
00
00
00
ENDCHAR
STARTCHAR 132
ENCODING 132
SWIDTH 72 0
DWIDTH 1 0
BBX 1 14 0 -2
BITMAP
00
00
00
00
00
00
00
00
00
00
00
00
00
00
ENDCHAR
STARTCHAR 133
ENCODING 133
SWIDTH 72 0
DWIDTH 1 0
BBX 1 14 0 -2
BITMAP
00
00
00
00
00
00
00
00
00
00
00
00
00
00
ENDCHAR
STARTCHAR 134
ENCODING 134
SWIDTH 72 0
DWIDTH 1 0
BBX 1 14 0 -2
BITMAP
00
00
00
00
00
00
00
00
00
00
00
00
00
00
ENDCHAR
STARTCHAR 135
ENCODING 135
SWIDTH 72 0
DWIDTH 1 0
BBX 1 14 0 -2
BITMAP
00
00
00
00
00
00
00
00
00
00
00
00
00
00
ENDCHAR
STARTCHAR 136
ENCODING 136
SWIDTH 72 0
DWIDTH 1 0
BBX 1 14 0 -2
BITMAP
00
00
00
00
00
00
00
00
00
00
00
00
00
00
ENDCHAR
STARTCHAR 137
ENCODING 137
SWIDTH 72 0
DWIDTH 1 0
BBX 1 14 0 -2
BITMAP
00
00
00
00
00
00
00
00
00
00
00
00
00
00
ENDCHAR
STARTCHAR 138
ENCODING 138
SWIDTH 72 0
DWIDTH 1 0
BBX 1 14 0 -2
BITMAP
00
00
00
00
00
00
00
00
00
00
00
00
00
00
ENDCHAR
STARTCHAR 139
ENCODING 139
SWIDTH 72 0
DWIDTH 1 0
BBX 1 14 0 -2
BITMAP
00
00
00
00
00
00
00
00
00
00
00
00
00
00
ENDCHAR
STARTCHAR 140
ENCODING 140
SWIDTH 72 0
DWIDTH 1 0
BBX 1 14 0 -2
BITMAP
00
00
00
00
00
00
00
00
00
00
00
00
00
00
ENDCHAR
STARTCHAR 141
ENCODING 141
SWIDTH 72 0
DWIDTH 1 0
BBX 1 14 0 -2
BITMAP
00
00
00
00
00
00
00
00
00
00
00
00
00
00
ENDCHAR
STARTCHAR 142
ENCODING 142
SWIDTH 72 0
DWIDTH 1 0
BBX 1 14 0 -2
BITMAP
00
00
00
00
00
00
00
00
00
00
00
00
00
00
ENDCHAR
STARTCHAR 143
ENCODING 143
SWIDTH 72 0
DWIDTH 1 0
BBX 1 14 0 -2
BITMAP
00
00
00
00
00
00
00
00
00
00
00
00
00
00
ENDCHAR
STARTCHAR 144
ENCODING 144
SWIDTH 72 0
DWIDTH 1 0
BBX 1 14 0 -2
BITMAP
00
00
00
00
00
00
00
00
00
00
00
00
00
00
ENDCHAR
STARTCHAR 145
ENCODING 145
SWIDTH 72 0
DWIDTH 1 0
BBX 1 14 0 -2
BITMAP
00
00
00
00
00
00
00
00
00
00
00
00
00
00
ENDCHAR
STARTCHAR 146
ENCODING 146
SWIDTH 72 0
DWIDTH 1 0
BBX 1 14 0 -2
BITMAP
00
00
00
00
00
00
00
00
00
00
00
00
00
00
ENDCHAR
STARTCHAR 147
ENCODING 147
SWIDTH 72 0
DWIDTH 1 0
BBX 1 14 0 -2
BITMAP
00
00
00
00
00
00
00
00
00
00
00
00
00
00
ENDCHAR
STARTCHAR 148
ENCODING 148
SWIDTH 72 0
DWIDTH 1 0
BBX 1 14 0 -2
BITMAP
00
00
00
00
00
00
00
00
00
00
00
00
00
00
ENDCHAR
STARTCHAR 149
ENCODING 149
SWIDTH 72 0
DWIDTH 1 0
BBX 1 14 0 -2
BITMAP
00
00
00
00
00
00
00
00
00
00
00
00
00
00
ENDCHAR
STARTCHAR 150
ENCODING 150
SWIDTH 72 0
DWIDTH 1 0
BBX 1 14 0 -2
BITMAP
00
00
00
00
00
00
00
00
00
00
00
00
00
00
ENDCHAR
STARTCHAR 151
ENCODING 151
SWIDTH 72 0
DWIDTH 1 0
BBX 1 14 0 -2
BITMAP
00
00
00
00
00
00
00
00
00
00
00
00
00
00
ENDCHAR
STARTCHAR 152
ENCODING 152
SWIDTH 72 0
DWIDTH 1 0
BBX 1 14 0 -2
BITMAP
00
00
00
00
00
00
00
00
00
00
00
00
00
00
ENDCHAR
STARTCHAR 153
ENCODING 153
SWIDTH 72 0
DWIDTH 1 0
BBX 1 14 0 -2
BITMAP
00
00
00
00
00
00
00
00
00
00
00
00
00
00
ENDCHAR
STARTCHAR 154
ENCODING 154
SWIDTH 72 0
DWIDTH 1 0
BBX 1 14 0 -2
BITMAP
00
00
00
00
00
00
00
00
00
00
00
00
00
00
ENDCHAR
STARTCHAR 155
ENCODING 155
SWIDTH 72 0
DWIDTH 1 0
BBX 1 14 0 -2
BITMAP
00
00
00
00
00
00
00
00
00
00
00
00
00
00
ENDCHAR
STARTCHAR 156
ENCODING 156
SWIDTH 72 0
DWIDTH 1 0
BBX 1 14 0 -2
BITMAP
00
00
00
00
00
00
00
00
00
00
00
00
00
00
ENDCHAR
STARTCHAR 157
ENCODING 157
SWIDTH 72 0
DWIDTH 1 0
BBX 1 14 0 -2
BITMAP
00
00
00
00
00
00
00
00
00
00
00
00
00
00
ENDCHAR
STARTCHAR 158
ENCODING 158
SWIDTH 72 0
DWIDTH 1 0
BBX 1 14 0 -2
BITMAP
00
00
00
00
00
00
00
00
00
00
00
00
00
00
ENDCHAR
STARTCHAR 159
ENCODING 159
SWIDTH 72 0
DWIDTH 1 0
BBX 1 14 0 -2
BITMAP
00
00
00
00
00
00
00
00
00
00
00
00
00
00
ENDCHAR
STARTCHAR 160
ENCODING 160
SWIDTH 576 0
DWIDTH 8 0
BBX 8 14 0 -2
BITMAP
00
00
00
00
00
00
00
00
00
00
00
00
00
00
ENDCHAR
STARTCHAR 161
ENCODING 161
SWIDTH 576 0
DWIDTH 8 0
BBX 8 14 0 -2
BITMAP
00
00
00
10
00
10
10
10
10
10
10
10
00
00
ENDCHAR
STARTCHAR 162
ENCODING 162
SWIDTH 576 0
DWIDTH 8 0
BBX 8 14 0 -2
BITMAP
00
00
00
10
38
54
50
50
54
38
10
00
00
00
ENDCHAR
STARTCHAR 163
ENCODING 163
SWIDTH 576 0
DWIDTH 8 0
BBX 8 14 0 -2
BITMAP
00
00
00
1C
22
20
70
20
20
20
62
DC
00
00
ENDCHAR
STARTCHAR 164
ENCODING 164
SWIDTH 576 0
DWIDTH 8 0
BBX 8 14 0 -2
BITMAP
00
00
00
00
00
42
3C
24
24
3C
42
00
00
00
ENDCHAR
STARTCHAR 165
ENCODING 165
SWIDTH 576 0
DWIDTH 8 0
BBX 8 14 0 -2
BITMAP
00
00
00
82
82
44
28
7C
10
7C
10
10
00
00
ENDCHAR
STARTCHAR 166
ENCODING 166
SWIDTH 576 0
DWIDTH 8 0
BBX 8 14 0 -2
BITMAP
00
00
00
10
10
10
10
00
10
10
10
10
00
00
ENDCHAR
STARTCHAR 167
ENCODING 167
SWIDTH 576 0
DWIDTH 8 0
BBX 8 14 0 -2
BITMAP
00
00
18
24
20
18
24
24
18
04
24
18
00
00
ENDCHAR
STARTCHAR 168
ENCODING 168
SWIDTH 576 0
DWIDTH 8 0
BBX 8 14 0 -2
BITMAP
00
00
24
24
00
00
00
00
00
00
00
00
00
00
ENDCHAR
STARTCHAR 169
ENCODING 169
SWIDTH 576 0
DWIDTH 8 0
BBX 8 14 0 -2
BITMAP
00
00
38
44
92
AA
A2
AA
92
44
38
00
00
00
ENDCHAR
STARTCHAR 170
ENCODING 170
SWIDTH 576 0
DWIDTH 8 0
BBX 8 14 0 -2
BITMAP
00
00
00
38
04
3C
44
3C
00
7C
00
00
00
00
ENDCHAR
STARTCHAR 171
ENCODING 171
SWIDTH 576 0
DWIDTH 8 0
BBX 8 14 0 -2
BITMAP
00
00
00
00
12
24
48
90
48
24
12
00
00
00
ENDCHAR
STARTCHAR 172
ENCODING 172
SWIDTH 576 0
DWIDTH 8 0
BBX 8 14 0 -2
BITMAP
00
00
00
00
00
00
00
7E
02
02
02
00
00
00
ENDCHAR
STARTCHAR 173
ENCODING 173
SWIDTH 576 0
DWIDTH 8 0
BBX 8 14 0 -2
BITMAP
00
00
00
00
00
00
00
3C
00
00
00
00
00
00
ENDCHAR
STARTCHAR 174
ENCODING 174
SWIDTH 576 0
DWIDTH 8 0
BBX 8 14 0 -2
BITMAP
00
00
38
44
92
AA
AA
B2
AA
44
38
00
00
00
ENDCHAR
STARTCHAR 175
ENCODING 175
SWIDTH 576 0
DWIDTH 8 0
BBX 8 14 0 -2
BITMAP
00
00
00
7E
00
00
00
00
00
00
00
00
00
00
ENDCHAR
STARTCHAR 176
ENCODING 176
SWIDTH 576 0
DWIDTH 8 0
BBX 8 14 0 -2
BITMAP
00
00
00
18
24
24
18
00
00
00
00
00
00
00
ENDCHAR
STARTCHAR 177
ENCODING 177
SWIDTH 576 0
DWIDTH 8 0
BBX 8 14 0 -2
BITMAP
00
00
00
00
10
10
7C
10
10
00
7C
00
00
00
ENDCHAR
STARTCHAR 178
ENCODING 178
SWIDTH 576 0
DWIDTH 8 0
BBX 8 14 0 -2
BITMAP
00
00
30
48
08
30
40
78
00
00
00
00
00
00
ENDCHAR
STARTCHAR 179
ENCODING 179
SWIDTH 576 0
DWIDTH 8 0
BBX 8 14 0 -2
BITMAP
00
00
30
48
10
08
48
30
00
00
00
00
00
00
ENDCHAR
STARTCHAR 180
ENCODING 180
SWIDTH 576 0
DWIDTH 8 0
BBX 8 14 0 -2
BITMAP
00
00
08
10
00
00
00
00
00
00
00
00
00
00
ENDCHAR
STARTCHAR 181
ENCODING 181
SWIDTH 576 0
DWIDTH 8 0
BBX 8 14 0 -2
BITMAP
00
00
00
00
00
00
42
42
42
42
66
5A
40
00
ENDCHAR
STARTCHAR 182
ENCODING 182
SWIDTH 576 0
DWIDTH 8 0
BBX 8 14 0 -2
BITMAP
00
00
00
3E
74
74
74
34
14
14
14
14
00
00
ENDCHAR
STARTCHAR 183
ENCODING 183
SWIDTH 576 0
DWIDTH 8 0
BBX 8 14 0 -2
BITMAP
00
00
00
00
00
00
00
18
00
00
00
00
00
00
ENDCHAR
STARTCHAR 184
ENCODING 184
SWIDTH 576 0
DWIDTH 8 0
BBX 8 14 0 -2
BITMAP
00
00
00
00
00
00
00
00
00
00
00
00
08
18
ENDCHAR
STARTCHAR 185
ENCODING 185
SWIDTH 576 0
DWIDTH 8 0
BBX 8 14 0 -2
BITMAP
00
00
20
60
20
20
20
70
00
00
00
00
00
00
ENDCHAR
STARTCHAR 186
ENCODING 186
SWIDTH 576 0
DWIDTH 8 0
BBX 8 14 0 -2
BITMAP
00
00
00
30
48
48
30
00
78
00
00
00
00
00
ENDCHAR
STARTCHAR 187
ENCODING 187
SWIDTH 576 0
DWIDTH 8 0
BBX 8 14 0 -2
BITMAP
00
00
00
00
90
48
24
12
24
48
90
00
00
00
ENDCHAR
STARTCHAR 188
ENCODING 188
SWIDTH 576 0
DWIDTH 8 0
BBX 8 14 0 -2
BITMAP
00
00
40
C0
40
40
42
E6
0A
12
1A
06
00
00
ENDCHAR
STARTCHAR 189
ENCODING 189
SWIDTH 576 0
DWIDTH 8 0
BBX 8 14 0 -2
BITMAP
00
00
40
C0
40
40
4C
F2
02
0C
10
1E
00
00
ENDCHAR
STARTCHAR 190
ENCODING 190
SWIDTH 576 0
DWIDTH 8 0
BBX 8 14 0 -2
BITMAP
00
00
60
90
20
10
92
66
0A
12
1A
06
00
00
ENDCHAR
STARTCHAR 191
ENCODING 191
SWIDTH 576 0
DWIDTH 8 0
BBX 8 14 0 -2
BITMAP
00
00
00
10
00
10
10
20
40
42
42
3C
00
00
ENDCHAR
STARTCHAR 192
ENCODING 192
SWIDTH 576 0
DWIDTH 8 0
BBX 8 14 0 -2
BITMAP
00
00
10
08
00
18
24
42
42
7E
42
42
00
00
ENDCHAR
STARTCHAR 193
ENCODING 193
SWIDTH 576 0
DWIDTH 8 0
BBX 8 14 0 -2
BITMAP
00
00
08
10
00
18
24
42
42
7E
42
42
00
00
ENDCHAR
STARTCHAR 194
ENCODING 194
SWIDTH 576 0
DWIDTH 8 0
BBX 8 14 0 -2
BITMAP
00
00
18
24
00
18
24
42
42
7E
42
42
00
00
ENDCHAR
STARTCHAR 195
ENCODING 195
SWIDTH 576 0
DWIDTH 8 0
BBX 8 14 0 -2
BITMAP
00
00
32
4C
00
18
24
42
42
7E
42
42
00
00
ENDCHAR
STARTCHAR 196
ENCODING 196
SWIDTH 576 0
DWIDTH 8 0
BBX 8 14 0 -2
BITMAP
00
00
24
24
00
18
24
42
42
7E
42
42
00
00
ENDCHAR
STARTCHAR 197
ENCODING 197
SWIDTH 576 0
DWIDTH 8 0
BBX 8 14 0 -2
BITMAP
00
00
18
24
18
18
24
42
42
7E
42
42
00
00
ENDCHAR
STARTCHAR 198
ENCODING 198
SWIDTH 576 0
DWIDTH 8 0
BBX 8 14 0 -2
BITMAP
00
00
00
6E
90
90
90
9C
F0
90
90
9E
00
00
ENDCHAR
STARTCHAR 199
ENCODING 199
SWIDTH 576 0
DWIDTH 8 0
BBX 8 14 0 -2
BITMAP
00
00
00
3C
42
40
40
40
40
40
42
3C
08
10
ENDCHAR
STARTCHAR 200
ENCODING 200
SWIDTH 576 0
DWIDTH 8 0
BBX 8 14 0 -2
BITMAP
00
00
10
08
00
7E
40
40
78
40
40
7E
00
00
ENDCHAR
STARTCHAR 201
ENCODING 201
SWIDTH 576 0
DWIDTH 8 0
BBX 8 14 0 -2
BITMAP
00
00
08
10
00
7E
40
40
78
40
40
7E
00
00
ENDCHAR
STARTCHAR 202
ENCODING 202
SWIDTH 576 0
DWIDTH 8 0
BBX 8 14 0 -2
BITMAP
00
00
18
24
00
7E
40
40
78
40
40
7E
00
00
ENDCHAR
STARTCHAR 203
ENCODING 203
SWIDTH 576 0
DWIDTH 8 0
BBX 8 14 0 -2
BITMAP
00
00
24
24
00
7E
40
40
78
40
40
7E
00
00
ENDCHAR
STARTCHAR 204
ENCODING 204
SWIDTH 576 0
DWIDTH 8 0
BBX 8 14 0 -2
BITMAP
00
00
20
10
00
7C
10
10
10
10
10
7C
00
00
ENDCHAR
STARTCHAR 205
ENCODING 205
SWIDTH 576 0
DWIDTH 8 0
BBX 8 14 0 -2
BITMAP
00
00
08
10
00
7C
10
10
10
10
10
7C
00
00
ENDCHAR
STARTCHAR 206
ENCODING 206
SWIDTH 576 0
DWIDTH 8 0
BBX 8 14 0 -2
BITMAP
00
00
18
24
00
7C
10
10
10
10
10
7C
00
00
ENDCHAR
STARTCHAR 207
ENCODING 207
SWIDTH 576 0
DWIDTH 8 0
BBX 8 14 0 -2
BITMAP
00
00
44
44
00
7C
10
10
10
10
10
7C
00
00
ENDCHAR
STARTCHAR 208
ENCODING 208
SWIDTH 576 0
DWIDTH 8 0
BBX 8 14 0 -2
BITMAP
00
00
00
78
44
42
42
E2
42
42
44
78
00
00
ENDCHAR
STARTCHAR 209
ENCODING 209
SWIDTH 576 0
DWIDTH 8 0
BBX 8 14 0 -2
BITMAP
00
00
64
98
00
82
C2
A2
92
8A
86
82
00
00
ENDCHAR
STARTCHAR 210
ENCODING 210
SWIDTH 576 0
DWIDTH 8 0
BBX 8 14 0 -2
BITMAP
00
00
20
10
00
7C
82
82
82
82
82
7C
00
00
ENDCHAR
STARTCHAR 211
ENCODING 211
SWIDTH 576 0
DWIDTH 8 0
BBX 8 14 0 -2
BITMAP
00
00
08
10
00
7C
82
82
82
82
82
7C
00
00
ENDCHAR
STARTCHAR 212
ENCODING 212
SWIDTH 576 0
DWIDTH 8 0
BBX 8 14 0 -2
BITMAP
00
00
18
24
00
7C
82
82
82
82
82
7C
00
00
ENDCHAR
STARTCHAR 213
ENCODING 213
SWIDTH 576 0
DWIDTH 8 0
BBX 8 14 0 -2
BITMAP
00
00
64
98
00
7C
82
82
82
82
82
7C
00
00
ENDCHAR
STARTCHAR 214
ENCODING 214
SWIDTH 576 0
DWIDTH 8 0
BBX 8 14 0 -2
BITMAP
00
00
44
44
00
7C
82
82
82
82
82
7C
00
00
ENDCHAR
STARTCHAR 215
ENCODING 215
SWIDTH 576 0
DWIDTH 8 0
BBX 8 14 0 -2
BITMAP
00
00
00
00
00
42
24
18
18
24
42
00
00
00
ENDCHAR
STARTCHAR 216
ENCODING 216
SWIDTH 576 0
DWIDTH 8 0
BBX 8 14 0 -2
BITMAP
00
00
02
3C
46
4A
4A
52
52
52
62
3C
40
00
ENDCHAR
STARTCHAR 217
ENCODING 217
SWIDTH 576 0
DWIDTH 8 0
BBX 8 14 0 -2
BITMAP
00
00
20
10
00
42
42
42
42
42
42
3C
00
00
ENDCHAR
STARTCHAR 218
ENCODING 218
SWIDTH 576 0
DWIDTH 8 0
BBX 8 14 0 -2
BITMAP
00
00
08
10
00
42
42
42
42
42
42
3C
00
00
ENDCHAR
STARTCHAR 219
ENCODING 219
SWIDTH 576 0
DWIDTH 8 0
BBX 8 14 0 -2
BITMAP
00
00
18
24
00
42
42
42
42
42
42
3C
00
00
ENDCHAR
STARTCHAR 220
ENCODING 220
SWIDTH 576 0
DWIDTH 8 0
BBX 8 14 0 -2
BITMAP
00
00
24
24
00
42
42
42
42
42
42
3C
00
00
ENDCHAR
STARTCHAR 221
ENCODING 221
SWIDTH 576 0
DWIDTH 8 0
BBX 8 14 0 -2
BITMAP
00
00
08
10
00
44
44
28
10
10
10
10
00
00
ENDCHAR
STARTCHAR 222
ENCODING 222
SWIDTH 576 0
DWIDTH 8 0
BBX 8 14 0 -2
BITMAP
00
00
00
40
7C
42
42
42
7C
40
40
40
00
00
ENDCHAR
STARTCHAR 223
ENCODING 223
SWIDTH 576 0
DWIDTH 8 0
BBX 8 14 0 -2
BITMAP
00
00
00
38
44
44
48
50
4C
42
42
5C
00
00
ENDCHAR
STARTCHAR 224
ENCODING 224
SWIDTH 576 0
DWIDTH 8 0
BBX 8 14 0 -2
BITMAP
00
00
00
10
08
00
3C
02
3E
42
46
3A
00
00
ENDCHAR
STARTCHAR 225
ENCODING 225
SWIDTH 576 0
DWIDTH 8 0
BBX 8 14 0 -2
BITMAP
00
00
00
04
08
00
3C
02
3E
42
46
3A
00
00
ENDCHAR
STARTCHAR 226
ENCODING 226
SWIDTH 576 0
DWIDTH 8 0
BBX 8 14 0 -2
BITMAP
00
00
00
18
24
00
3C
02
3E
42
46
3A
00
00
ENDCHAR
STARTCHAR 227
ENCODING 227
SWIDTH 576 0
DWIDTH 8 0
BBX 8 14 0 -2
BITMAP
00
00
00
32
4C
00
3C
02
3E
42
46
3A
00
00
ENDCHAR
STARTCHAR 228
ENCODING 228
SWIDTH 576 0
DWIDTH 8 0
BBX 8 14 0 -2
BITMAP
00
00
00
24
24
00
3C
02
3E
42
46
3A
00
00
ENDCHAR
STARTCHAR 229
ENCODING 229
SWIDTH 576 0
DWIDTH 8 0
BBX 8 14 0 -2
BITMAP
00
00
18
24
18
00
3C
02
3E
42
46
3A
00
00
ENDCHAR
STARTCHAR 230
ENCODING 230
SWIDTH 576 0
DWIDTH 8 0
BBX 8 14 0 -2
BITMAP
00
00
00
00
00
00
6C
12
7C
90
92
6C
00
00
ENDCHAR
STARTCHAR 231
ENCODING 231
SWIDTH 576 0
DWIDTH 8 0
BBX 8 14 0 -2
BITMAP
00
00
00
00
00
00
3C
42
40
40
42
3C
08
10
ENDCHAR
STARTCHAR 232
ENCODING 232
SWIDTH 576 0
DWIDTH 8 0
BBX 8 14 0 -2
BITMAP
00
00
00
10
08
00
3C
42
7E
40
42
3C
00
00
ENDCHAR
STARTCHAR 233
ENCODING 233
SWIDTH 576 0
DWIDTH 8 0
BBX 8 14 0 -2
BITMAP
00
00
00
08
10
00
3C
42
7E
40
42
3C
00
00
ENDCHAR
STARTCHAR 234
ENCODING 234
SWIDTH 576 0
DWIDTH 8 0
BBX 8 14 0 -2
BITMAP
00
00
00
18
24
00
3C
42
7E
40
42
3C
00
00
ENDCHAR
STARTCHAR 235
ENCODING 235
SWIDTH 576 0
DWIDTH 8 0
BBX 8 14 0 -2
BITMAP
00
00
00
24
24
00
3C
42
7E
40
42
3C
00
00
ENDCHAR
STARTCHAR 236
ENCODING 236
SWIDTH 576 0
DWIDTH 8 0
BBX 8 14 0 -2
BITMAP
00
00
00
20
10
00
30
10
10
10
10
7C
00
00
ENDCHAR
STARTCHAR 237
ENCODING 237
SWIDTH 576 0
DWIDTH 8 0
BBX 8 14 0 -2
BITMAP
00
00
00
10
20
00
30
10
10
10
10
7C
00
00
ENDCHAR
STARTCHAR 238
ENCODING 238
SWIDTH 576 0
DWIDTH 8 0
BBX 8 14 0 -2
BITMAP
00
00
00
30
48
00
30
10
10
10
10
7C
00
00
ENDCHAR
STARTCHAR 239
ENCODING 239
SWIDTH 576 0
DWIDTH 8 0
BBX 8 14 0 -2
BITMAP
00
00
00
48
48
00
30
10
10
10
10
7C
00
00
ENDCHAR
STARTCHAR 240
ENCODING 240
SWIDTH 576 0
DWIDTH 8 0
BBX 8 14 0 -2
BITMAP
00
00
24
18
28
04
3C
42
42
42
42
3C
00
00
ENDCHAR
STARTCHAR 241
ENCODING 241
SWIDTH 576 0
DWIDTH 8 0
BBX 8 14 0 -2
BITMAP
00
00
00
32
4C
00
5C
62
42
42
42
42
00
00
ENDCHAR
STARTCHAR 242
ENCODING 242
SWIDTH 576 0
DWIDTH 8 0
BBX 8 14 0 -2
BITMAP
00
00
00
20
10
00
3C
42
42
42
42
3C
00
00
ENDCHAR
STARTCHAR 243
ENCODING 243
SWIDTH 576 0
DWIDTH 8 0
BBX 8 14 0 -2
BITMAP
00
00
00
08
10
00
3C
42
42
42
42
3C
00
00
ENDCHAR
STARTCHAR 244
ENCODING 244
SWIDTH 576 0
DWIDTH 8 0
BBX 8 14 0 -2
BITMAP
00
00
00
18
24
00
3C
42
42
42
42
3C
00
00
ENDCHAR
STARTCHAR 245
ENCODING 245
SWIDTH 576 0
DWIDTH 8 0
BBX 8 14 0 -2
BITMAP
00
00
00
32
4C
00
3C
42
42
42
42
3C
00
00
ENDCHAR
STARTCHAR 246
ENCODING 246
SWIDTH 576 0
DWIDTH 8 0
BBX 8 14 0 -2
BITMAP
00
00
00
24
24
00
3C
42
42
42
42
3C
00
00
ENDCHAR
STARTCHAR 247
ENCODING 247
SWIDTH 576 0
DWIDTH 8 0
BBX 8 14 0 -2
BITMAP
00
00
00
00
10
10
00
7C
00
10
10
00
00
00
ENDCHAR
STARTCHAR 248
ENCODING 248
SWIDTH 576 0
DWIDTH 8 0
BBX 8 14 0 -2
BITMAP
00
00
00
00
00
02
3C
46
4A
52
62
3C
40
00
ENDCHAR
STARTCHAR 249
ENCODING 249
SWIDTH 576 0
DWIDTH 8 0
BBX 8 14 0 -2
BITMAP
00
00
00
20
10
00
44
44
44
44
44
3A
00
00
ENDCHAR
STARTCHAR 250
ENCODING 250
SWIDTH 576 0
DWIDTH 8 0
BBX 8 14 0 -2
BITMAP
00
00
00
08
10
00
44
44
44
44
44
3A
00
00
ENDCHAR
STARTCHAR 251
ENCODING 251
SWIDTH 576 0
DWIDTH 8 0
BBX 8 14 0 -2
BITMAP
00
00
00
18
24
00
44
44
44
44
44
3A
00
00
ENDCHAR
STARTCHAR 252
ENCODING 252
SWIDTH 576 0
DWIDTH 8 0
BBX 8 14 0 -2
BITMAP
00
00
00
28
28
00
44
44
44
44
44
3A
00
00
ENDCHAR
STARTCHAR 253
ENCODING 253
SWIDTH 576 0
DWIDTH 8 0
BBX 8 14 0 -2
BITMAP
00
00
00
08
10
00
42
42
42
46
3A
02
42
3C
ENDCHAR
STARTCHAR 254
ENCODING 254
SWIDTH 576 0
DWIDTH 8 0
BBX 8 14 0 -2
BITMAP
00
00
00
00
40
40
5C
62
42
42
62
5C
40
40
ENDCHAR
STARTCHAR 255
ENCODING 255
SWIDTH 576 0
DWIDTH 8 0
BBX 8 14 0 -2
BITMAP
00
00
00
24
24
00
42
42
42
46
3A
02
42
3C
ENDCHAR
ENDFONT
